{
	"asset":{
		"generator":"Khronos glTF Blender I/O v3.6.27",
		"version":"2.0"
	},
	"scene":0,
	"scenes":[
		{
			"name":"Scene",
			"nodes":[
				0
			]
		}
	],
	"nodes":[
		{
			"mesh":0,
			"name":"Earth_Diffuse_6K",
			"rotation":[
				0.26508110761642456,
				0.006917458958923817,
				0.9636699557304382,
				0.0320071205496788
			],
			"scale":[
				10,
				10,
				10
			]
		}
	],
	"materials":[
		{
			"alphaMode":"BLEND",
			"doubleSided":true,
			"name":"Earth_Diffuse_6K",
			"normalTexture":{
				"index":0,
				"scale":0.5
			},
			"pbrMetallicRoughness":{
				"baseColorTexture":{
					"index":1
				},
				"metallicFactor":0,
				"metallicRoughnessTexture":{
					"index":2
				}
			}
		}
	],
	"meshes":[
		{
			"name":"Earth_Diffuse_6K",
			"primitives":[
				{
					"attributes":{
						"POSITION":0,
						"NORMAL":1,
						"TEXCOORD_0":2
					},
					"indices":3,
					"material":0
				}
			]
		}
	],
	"textures":[
		{
			"sampler":0,
			"source":0
		},
		{
			"sampler":0,
			"source":1
		},
		{
			"sampler":0,
			"source":2
		}
	],
	"images":[
		{
			"mimeType":"image/png",
			"name":"Earth_NormalNRM_1K",
			"uri":"Earth_NormalNRM_1K.png"
		},
		{
			"mimeType":"image/png",
			"name":"Earth_Diffuse_1K",
			"uri":"Earth_Diffuse_1K.png"
		},
		{
			"mimeType":"image/png",
			"name":"Earth_Glossiness_1K",
			"uri":"Earth_Glossiness_1K.png"
		}
	],
	"accessors":[
		{
			"bufferView":0,
			"componentType":5126,
			"count":8385,
			"max":[
				0.31830987334251404,
				0.3183099329471588,
				0.31985726952552795
			],
			"min":[
				-0.31830987334251404,
				-0.3183099329471588,
				-0.3167624771595001
			],
			"type":"VEC3"
		},
		{
			"bufferView":1,
			"componentType":5126,
			"count":8385,
			"type":"VEC3"
		},
		{
			"bufferView":2,
			"componentType":5126,
			"count":8385,
			"type":"VEC2"
		},
		{
			"bufferView":3,
			"componentType":5123,
			"count":49152,
			"type":"SCALAR"
		}
	],
	"bufferViews":[
		{
			"buffer":0,
			"byteLength":100620,
			"byteOffset":0,
			"target":34962
		},
		{
			"buffer":0,
			"byteLength":100620,
			"byteOffset":100620,
			"target":34962
		},
		{
			"buffer":0,
			"byteLength":67080,
			"byteOffset":201240,
			"target":34962
		},
		{
			"buffer":0,
			"byteLength":98304,
			"byteOffset":268320,
			"target":34963
		}
	],
	"samplers":[
		{
			"magFilter":9729,
			"minFilter":9987,
			"wrapS":33071,
			"wrapT":33071
		}
	],
	"buffers":[
		{
			"byteLength":366624,
			"uri":"earth.bin"
		}
	]
}
