{
	"asset":{
		"generator":"Khronos glTF Blender I/O v3.6.27",
		"version":"2.0"
	},
	"extensionsUsed":[
		"KHR_materials_specular",
		"KHR_materials_ior"
	],
	"scene":0,
	"scenes":[
		{
			"name":"Scene",
			"nodes":[
				0
			]
		}
	],
	"nodes":[
		{
			"mesh":0,
			"name":"Cube"
		}
	],
	"materials":[
		{
			"doubleSided":true,
			"extensions":{
				"KHR_materials_specular":{
					"specularColorFactor":[
						2.371357614441398,
						2.371357614441398,
						2.371357614441398
					]
				},
				"KHR_materials_ior":{
					"ior":1.4500000476837158
				}
			},
			"name":"Material",
			"pbrMetallicRoughness":{
				"baseColorTexture":{
					"index":0
				},
				"metallicFactor":0.33980584144592285,
				"roughnessFactor":0.18446600437164307
			}
		}
	],
	"meshes":[
		{
			"name":"Cube",
			"primitives":[
				{
					"attributes":{
						"POSITION":0,
						"NORMAL":1,
						"TEXCOORD_0":2
					},
					"indices":3,
					"material":0
				}
			]
		}
	],
	"textures":[
		{
			"sampler":0,
			"source":0
		}
	],
	"images":[
		{
			"bufferView":4,
			"mimeType":"image/png",
			"name":"Material Base Color"
		}
	],
	"accessors":[
		{
			"bufferView":0,
			"componentType":5126,
			"count":25025,
			"max":[
				1.1598867177963257,
				1.0683027505874634,
				1.270348072052002
			],
			"min":[
				-1,
				-1.046281099319458,
				-1
			],
			"type":"VEC3"
		},
		{
			"bufferView":1,
			"componentType":5126,
			"count":25025,
			"type":"VEC3"
		},
		{
			"bufferView":2,
			"componentType":5126,
			"count":25025,
			"type":"VEC2"
		},
		{
			"bufferView":3,
			"componentType":5123,
			"count":147456,
			"type":"SCALAR"
		}
	],
	"bufferViews":[
		{
			"buffer":0,
			"byteLength":300300,
			"byteOffset":0,
			"target":34962
		},
		{
			"buffer":0,
			"byteLength":300300,
			"byteOffset":300300,
			"target":34962
		},
		{
			"buffer":0,
			"byteLength":200200,
			"byteOffset":600600,
			"target":34962
		},
		{
			"buffer":0,
			"byteLength":294912,
			"byteOffset":800800,
			"target":34963
		},
		{
			"buffer":0,
			"byteLength":121389,
			"byteOffset":1095712
		}
	],
	"samplers":[
		{
			"magFilter":9729,
			"minFilter":9987
		}
	],
	"buffers":[
		{
			"byteLength":1217104,
			"uri":"data:application/octet-stream;base64,"
		}
	]
}
